# xmcd
#
# Track frame offsets:
#	150
#	6238
#	16644
#	28607
#	38773
#	46732
#	53604
#	63263
#	73869
#	86108
#	93767
#	102951
#	114207
#	123122
#	138424
#	152801
#	163804
#	173274
#
# Disc length: 2483 seconds
#
# Revision: 0
# Processed by: cddbd v1.5.2PL0 Copyright (c) Steve Scherf et al.
# Submitted via: dBpowerAMP V4.0
#
DISCID=d109b112
DTITLE=Jim Reeves - Together Jim Reeves
DYEAR=1900
DGENRE=Easy Listening
TTITLE0=Have I Told You Lately That I Love You
TTITLE1=Just Call Me Lonesome
TTITLE2=Your Old Love Letters
TTITLE3=He'll Have To Go
TTITLE4=Till The End Of The World
TTITLE5=(Gimme That) Old Tyme Religion
TTITLE6=Dear Hearts And Gentle People
TTITLE7=Peace In The Valley
TTITLE8=Four Walls
TTITLE9=Bimbo
TTITLE10=Billy Bayou
TTITLE11=Am I Losing You
TTITLE12=According To My Heart
TTITLE13=Making Believe
TTITLE14=Highway To Nowhere
TTITLE15=I Love You More
TTITLE16=Home
TTITLE17=How's The World Treating You
EXTD=
EXTT0=
EXTT1=
EXTT2=
EXTT3=
EXTT4=
EXTT5=
EXTT6=
EXTT7=
EXTT8=
EXTT9=
EXTT10=
EXTT11=
EXTT12=
EXTT13=
EXTT14=
EXTT15=
EXTT16=
EXTT17=
PLAYORDER=
